<svg width="16" height="16" viewBox="0 0 16 16" fill="none" xmlns="http://www.w3.org/2000/svg">
<mask id="mask0_11599_104" style="mask-type:alpha" maskUnits="userSpaceOnUse" x="0" y="0" width="16" height="16">
<rect width="16" height="16" fill="white"/>
</mask>
<g mask="url(#mask0_11599_104)">
<path d="M8.00002 8.63362C8.18882 8.63362 8.35282 8.56402 8.49202 8.42482C8.63068 8.28615 8.70002 8.12242 8.70002 7.93362V5.36642C8.70002 5.17762 8.63068 5.01655 8.49202 4.88322C8.35282 4.74988 8.18882 4.68322 8.00002 4.68322C7.81122 4.68322 7.64722 4.75282 7.50802 4.89202C7.36935 5.03068 7.30002 5.19442 7.30002 5.38322V7.95042C7.30002 8.13922 7.36935 8.30028 7.50802 8.43362C7.64722 8.56695 7.81122 8.63362 8.00002 8.63362ZM8.00002 11.3504C8.18882 11.3504 8.35282 11.2864 8.49202 11.1584C8.63068 11.0304 8.70002 10.8608 8.70002 10.6496C8.70002 10.4608 8.63068 10.2971 8.49202 10.1584C8.35282 10.0198 8.18882 9.95042 8.00002 9.95042C7.81122 9.95042 7.64722 10.0198 7.50802 10.1584C7.36935 10.2971 7.30002 10.4608 7.30002 10.6496C7.30002 10.8608 7.36935 11.0304 7.50802 11.1584C7.64722 11.2864 7.81122 11.3504 8.00002 11.3504ZM8.00002 14.6664C7.07788 14.6664 6.21122 14.4915 5.40002 14.1416C4.58882 13.7918 3.88322 13.3168 3.28322 12.7168C2.68322 12.1168 2.20828 11.4112 1.85842 10.6C1.50855 9.78882 1.33362 8.92215 1.33362 8.00002C1.33362 7.07788 1.50855 6.21122 1.85842 5.40002C2.20828 4.58882 2.68322 3.88322 3.28322 3.28322C3.88322 2.68322 4.58882 2.20828 5.40002 1.85842C6.21122 1.50855 7.07788 1.33362 8.00002 1.33362C8.92215 1.33362 9.78882 1.50855 10.6 1.85842C11.4112 2.20828 12.1168 2.68322 12.7168 3.28322C13.3168 3.88322 13.7918 4.58882 14.1416 5.40002C14.4915 6.21122 14.6664 7.07788 14.6664 8.00002C14.6664 8.92215 14.4915 9.78882 14.1416 10.6C13.7918 11.4112 13.3168 12.1168 12.7168 12.7168C12.1168 13.3168 11.4112 13.7918 10.6 14.1416C9.78882 14.4915 8.92215 14.6664 8.00002 14.6664Z" fill="white"/>
</g>
</svg>
