<svg width="16" height="16" viewBox="0 0 16 16" fill="none" xmlns="http://www.w3.org/2000/svg">
<mask id="mask0_11599_59" style="mask-type:alpha" maskUnits="userSpaceOnUse" x="0" y="0" width="16" height="16">
<rect width="16" height="16" fill="white"/>
</mask>
<g mask="url(#mask0_11599_59)">
<path d="M1.88323 14C1.61656 14 1.41389 13.8832 1.27523 13.6496C1.13603 13.4165 1.13309 13.1834 1.26643 12.9504L7.40003 2.38317C7.53336 2.1501 7.73336 2.03357 8.00003 2.03357C8.26669 2.03357 8.46669 2.1501 8.60003 2.38317L14.7336 12.9504C14.867 13.1834 14.864 13.4165 14.7248 13.6496C14.5862 13.8832 14.3835 14 14.1168 14H1.88323ZM8.01683 6.68317C7.82803 6.68317 7.66403 6.75277 7.52483 6.89197C7.38616 7.03064 7.31683 7.19437 7.31683 7.38317V9.24957C7.31683 9.4389 7.38616 9.6029 7.52483 9.74157C7.66403 9.88077 7.82803 9.95037 8.01683 9.95037C8.20563 9.95037 8.36936 9.88077 8.50803 9.74157C8.64723 9.6029 8.71683 9.4389 8.71683 9.24957V7.38317C8.71683 7.19437 8.64723 7.03064 8.50803 6.89197C8.36936 6.75277 8.20563 6.68317 8.01683 6.68317ZM8.01683 12C8.20563 12 8.36936 11.9306 8.50803 11.792C8.64723 11.6528 8.71683 11.4888 8.71683 11.3C8.71683 11.1112 8.64723 10.9472 8.50803 10.808C8.36936 10.6693 8.20563 10.6 8.01683 10.6C7.82803 10.6 7.66403 10.6693 7.52483 10.808C7.38616 10.9472 7.31683 11.1112 7.31683 11.3C7.31683 11.4888 7.38616 11.6528 7.52483 11.792C7.66403 11.9306 7.82803 12 8.01683 12Z" fill="white"/>
</g>
</svg>
