<svg width="16" height="16" viewBox="0 0 16 16" fill="none" xmlns="http://www.w3.org/2000/svg">
<mask id="mask0_7202_78914" style="mask-type:alpha" maskUnits="userSpaceOnUse" x="0" y="0" width="16" height="16">
<rect width="16" height="16" fill="white"/>
</mask>
<g mask="url(#mask0_7202_78914)">
<path d="M3.5999 13.6C3.2699 13.6 2.9874 13.4825 2.7524 13.2475C2.5174 13.0125 2.3999 12.73 2.3999 12.4V3.60002C2.3999 3.27002 2.5174 2.98752 2.7524 2.75252C2.9874 2.51752 3.2699 2.40002 3.5999 2.40002H12.3999C12.7299 2.40002 13.0124 2.51752 13.2474 2.75252C13.4824 2.98752 13.5999 3.27002 13.5999 3.60002V12.4C13.5999 12.73 13.4824 13.0125 13.2474 13.2475C13.0124 13.4825 12.7299 13.6 12.3999 13.6H3.5999ZM3.5999 12.4H12.3999V4.80002H3.5999V12.4ZM5.3999 7.98336C5.2299 7.98336 5.0874 7.9262 4.9724 7.81187C4.8574 7.69754 4.7999 7.55587 4.7999 7.38687C4.7999 7.21786 4.8574 7.07502 4.9724 6.95836C5.0874 6.84169 5.2299 6.78336 5.3999 6.78336H10.5999C10.7699 6.78336 10.9124 6.84052 11.0274 6.95484C11.1424 7.06917 11.1999 7.21084 11.1999 7.37984C11.1999 7.54885 11.1424 7.69169 11.0274 7.80836C10.9124 7.92502 10.7699 7.98336 10.5999 7.98336H5.3999ZM5.3999 10.4C5.2299 10.4 5.0874 10.3429 4.9724 10.2285C4.8574 10.1142 4.7999 9.97254 4.7999 9.80354C4.7999 9.63453 4.8574 9.49169 4.9724 9.37502C5.0874 9.25836 5.2299 9.20002 5.3999 9.20002H8.1999C8.3699 9.20002 8.5124 9.25719 8.6274 9.37151C8.7424 9.48584 8.7999 9.62751 8.7999 9.79651C8.7999 9.96552 8.7424 10.1084 8.6274 10.225C8.5124 10.3417 8.3699 10.4 8.1999 10.4H5.3999Z" fill="#94A3B8"/>
</g>
</svg>
