<svg width="16" height="16" viewBox="0 0 16 16" fill="none" xmlns="http://www.w3.org/2000/svg">
<mask id="mask0_11599_8" style="mask-type:alpha" maskUnits="userSpaceOnUse" x="0" y="0" width="16" height="16">
<rect width="16" height="16" fill="white"/>
</mask>
<g mask="url(#mask0_11599_8)">
<path d="M7.10002 9.08322L5.70002 7.68322C5.56668 7.54988 5.40562 7.48322 5.21682 7.48322C5.02802 7.48322 4.86695 7.54988 4.73362 7.68322C4.58908 7.82775 4.51682 7.99735 4.51682 8.19202C4.51682 8.38615 4.58348 8.54988 4.71682 8.68322L6.58322 10.5504C6.72775 10.6944 6.89442 10.7664 7.08322 10.7664C7.27202 10.7664 7.43868 10.6944 7.58322 10.5504L11.3 6.83362C11.4222 6.71095 11.4528 6.56375 11.392 6.39202C11.3307 6.21975 11.3 6.04455 11.3 5.86642C11.1667 5.73308 11.0027 5.66642 10.808 5.66642C10.6139 5.66642 10.4502 5.73308 10.3168 5.86642L7.10002 9.08322ZM8.00002 14.6664C7.07788 14.6664 6.21122 14.4915 5.40002 14.1416C4.58882 13.7918 3.88322 13.3168 3.28322 12.7168C2.68322 12.1168 2.20828 11.4112 1.85842 10.6C1.50855 9.78882 1.33362 8.92215 1.33362 8.00002C1.33362 7.07788 1.50855 6.21122 1.85842 5.40002C2.20828 4.58882 2.68322 3.88322 3.28322 3.28322C3.88322 2.68322 4.58882 2.20828 5.40002 1.85842C6.21122 1.50855 7.07788 1.33362 8.00002 1.33362C8.92215 1.33362 9.78882 1.50855 10.6 1.85842C11.4112 2.20828 12.1168 2.68322 12.7168 3.28322C13.3168 3.88322 13.7918 4.58882 14.1416 5.40002C14.4915 6.21122 14.6664 7.07788 14.6664 8.00002C14.6664 8.92215 14.4915 9.78882 14.1416 10.6C13.7918 11.4112 13.3168 12.1168 12.7168 12.7168C12.1168 13.3168 11.4112 13.7918 10.6 14.1416C9.78882 14.4915 8.92215 14.6664 8.00002 14.6664Z" fill="white"/>
</g>
</svg>
